<mxfile host="www.draw.io" modified="2019-12-26T07:29:50.722Z" agent="Mozilla/5.0 (Windows NT 10.0; Win64; x64) AppleWebKit/537.36 (KHTML, like Gecko) Chrome/79.0.3945.88 Safari/537.36" etag="52fk3uiceUj7VF-nJQQ8" version="12.4.3" type="github" pages="1">
  <diagram id="eqNlDEjNYSqjxoKH-_Ba" name="Page-1">
    <mxGraphModel dx="1248" dy="677" grid="1" gridSize="10" guides="1" tooltips="1" connect="1" arrows="1" fold="1" page="1" pageScale="1" pageWidth="850" pageHeight="1100" math="0" shadow="0">
      <root>
        <mxCell id="0"/>
        <mxCell id="1" parent="0"/>
        <mxCell id="s73TaxPdMibVcEXbJFwl-9" value="" style="rounded=1;whiteSpace=wrap;html=1;" vertex="1" parent="1">
          <mxGeometry x="244" y="143" width="141.06" height="160" as="geometry"/>
        </mxCell>
        <mxCell id="s73TaxPdMibVcEXbJFwl-11" value="" style="shape=image;verticalLabelPosition=bottom;labelBackgroundColor=#ffffff;verticalAlign=top;aspect=fixed;imageAspect=0;image=data:image/png,iVBORw0KGgoAAAANSUhEUgAAAMoAAAD5CAMAAABRVVqZAAAAkFBMVEUaGRj///8AAAAYFxYUExISEQ8PDQzNzc1XV1a0s7McGxrGxsa6urk1NTTZ2dlISEcIBgOYmJj29vbo6Ojx8fHT09P5+fnf39/l5eWkpKSQkI+/v7+qqqopKCdxcHBCQkGCgoJRUVBtbGyTk5JkZGN5eXk1NDMsLCuIiIhFRERubm0iISFlZGR+fX1UVFQpKSj9kVdqAAAQ0UlEQVR4nO2di3Lqug5Ag5IYKK/wLrSU0sIuLW3P///dtR0SYll5C8idqWbOzNkUkqzYsiVZlp3W1WQ67HVX4+Pr4eXl6+Xwc1yvnvvt5exq93OucM3Hp9VhBJEEgVASBNEHm/2xO5/w35YZZdo/aojAd5008YT6xsPbas57b0aUWffgyWf0UxlMINVKozEjDhfKfP1PtkV6U9DiS5zvLpP6sKDMX+UjeSUxIpHdbffMQVMf5XEt323Z5rBoOv27o/Q/63LENK+Pd0SZrQtreb64chTo3Qll+cXTIBfx4eH5DijDDgSsHFrkaL66McqyA4IfRIlbGaYSyuztWiAhjN+9FcrxGl0rKR78q2AFlEfpA1wXJIT5Lj1rlkWZjphHrTQJSqtMSZTxNZUECQzKzZmlUB4HN+hbF/FhfC2UFd/UXlBgO70GymR30yYJRUDxcbkwSvuGWpIUeONGeb/RwEWw/FewkxVE6dyhc0XiQzGDuRDKbHNHEmXJFBrJiqAMbz5yYYEXHpSnu6lJgmXEgbK6a+eKBD5yg4C5KO+NIJEzjJNnX+ahHBtCogaynEE5B+W1MSTK8M9myUZpEkkuSyZKc3pXKB5k6UsWyrhhJFJfnIxxLAOl2zgSOY59VEHpNZBE+snpc2UqyrKRJFlGfxrKJKi6yHBtSbUt01C293G0ikiazZ+C8tLQ7qXETZleaBTmwStcKWa7nH8qjsKr8gJee8vl00vlJT5L4LswyolT5aGzCK/6uGHz4Mg4DIXCqihBJ77uwudrF0JdCJQnThIXEldus13ZHxRBmbD6v+YssOXrYusCKHvWxRPTlmUcGWGZi8LavZxgb16dr8X9f7kovOEVQKtXa8ZmwesvGOXA2igetsmnjJfHfhhCYbaHwVqG7/DZdolhnkLhG2K0QAsLpxcE7QyUPnOj/FgoLZfPkvA2GSh807EWe8DkDXaa/de51m2k+JTzOmG8h2FKmCjMcW4gc7xeGKdgw5ZIojCHh11b6ZUMr9UsSRTuRnknUVoDRoVMNksChTuClxZK5HRRk82SQGFuFEG6etw3SpgvF5Rn7kZpUxhKOEPRbkCgsHrBcv6iYwlKHjlf2mWYjFG446pZiUM7xiDbxZ+MURjtPC2wSD58z5j3WX0iGCIUTutbSXAw2mH/avxTMCp+fKcIhdEn0mKaXxMwp0vWcT9q/wiF8z1J8bfGo6/ANGJmrChdA4UvrHO+vGl+nTz/0/jgjdEQiy59RuG08RzL/FIvyuxxc9ZmmSZRuBvFjFKpNgBT8T84DbFVAoU3YoTjoNpFQQ3FaVt4gwQKc/8SZgAh9OhQyJq/h4Uo3Oa9uS4VmkRoUOPMbgh7mBOpJaN4D8ZDRypuKj5nmMrfxSjM8yMyv77OvRfFX0aMcSo9S2qUf8yBFiPl4RKXMBWfc6jRPVqhsM690igyswMvYRwUq2RUUD3SKxTuQN7QeOJN3OSeGXxnjIro2LTDPJhYC1LJed2E5OwMKo7gsKsKmj+SUxay/L/5XCSlLA5vvNCa1RfGxU1/jHEOUJaSwz2rwDFF6fUfTcXfsHUHsdMovJFitAxtmo3efxmc9W6rUVgNMPGbqvT6jsaC3oIR5VGhcNrb2PzCrwnNOQe2twhPCoWzf3l+htLrWxqWAJ8hBmOJwrr8iPLObK8E2WdsC4ayuR3eWJ750om+i4KWbIaGt5UonANYYCY2Uh48CiWzGWIgUVh9IDPjgBobES2bfwETp7XnMx+QvUiPteayC1tUFJYO5yIUmszpUAQaGbhi1dB2WN0G4yFTJizkLnONOtB3GKcVFOpKWz9Fs+gDT6+AlcPoNYC5fTltKhdmYhXTCArvDt9qRBj3iCXddzAVn8nHCF4dRtvhyUCZbdOujBSfx5wVLw5bIDqxwBn1sJRLu6KQTpUTsXfYHC8i7b+bkiWNFJ9lOvA7DpsJRmUcLH2y86CYMktOgrdjQwnIjIMFvUkfuZocU5s3criChDjhMxIy3wClv3DkJHifXCjIa0/IE6EwKCzDkZMgW4Wpg9kJn7FMT/Yt0MD9W98QY0RJJWlRhQdUsCchDA8hUXgGYyrhMyFjS7GR4mcURCwo/i/TFEklfCbFKtKBFl7r5yT4e4dlriUTPg2Z/TPvgxS/vlErvhyWjCaUcTDcEPtj3yDrJ7VzEqQ5yWHk44TPH0BrLFpWhsIIsyFr93NYs7heOOETHI/ajTU0FAZ5N3VXRqTrxYJiml/apqLGtEnS7kch/7o5CdB1GBaKkFvYGuiQI4wWLUt+Lg+Me2VdlJ7DEPJAUbrImQt8or5Xwu5HfbBmPE4Fj37q9jCc8Blf0EPmSQjqRWMVSq+oOZTCjCHQihM+0/VBy8XuR/PqqFb3UIHW2qaxucBoOlKAdv5oOZ5HZRRsqvUg3j+GRQm07IvWGeBE7Ct9OhdRwopfwxATbxKl7ioamg3xmyFLYk03VF5VnZwEObU5dcODSHntgYguifWtvoayFeoYHtIOkihv9dQN7behllTQvKNF2/2oRWvkJMghxKlpYOOJjoyewAcRjWlLhUF6VsN3Che7a7lweFsyvbgoqCCGsvvR6Fc5J0El6Do1fQXkDaYNhy652+ALCq3IFHmMY5iuU2O7BwrOZVgfZA25ZzB35lYeTZXGKpQaiQB4pM2YGmBL+GND1POqWlGqcyiU6oFOtIKVfSVB+WMz07SpOF97CkP9V32JBWvAZ2ZGAemPIamWk6BHQp0GWnmSRBkHue80J8bUqpqToCc3jVLVVUDJNwViv6Q/ZkglQ0y7sRql6syCO3+BxyD9saRUyUkIjadzInsFjjitv1zn8OidxbFUUdzQygtRqmVUYC3OVvrLzwh/LCEVHPTQhwtRKg3H2Pwq7NGS/lgs5Xv72SMPUSrNsvjtFl/wIf2xWEobH2c78LyrqEoPQzG5MmNPZoni0sGGc4zgjFLBr0YJn+VmhKwSxWW7SFRhJdpMWH44xy+25CYO0h8LpaRNGJkcEUrpWRIlfJYPY5H+mJaS6yRRmDdCKW3H4R5SfpWX9Me0DMo0cBzmjbdDl7XjkPlVxeCg/bFWybkhDvPGKCXtOJQCWdUMTKnpXeK9XMK8TpWfO3bGQcUoKemPldLci0t9QSkVeEEJn9Vj16Q/VmLGT5gcF5RSwznOOKie2kH6Y8UjJ4mIj1PtcXDGQZ1wL+GPFc/cS4w+CZQSQSQUg6+Zj277Y4WnhuSDJKvrFFc2bH7t6u0SCHyUwVDYDEuugiZRCjcLSvisn8KN/bGiwQbDODcqURXVFrwwx5BYbzxU4e5hzNMGyqKY9rq4liBHlh3s4scq/GZM48l8qmJ91NuNDam9MKtFnM2YdmpSLxaUQ4tecDEPzgNDmDZsqVMW97sSxzaiGQmh3LkMuy9KFGHB622423eufLwdo+AcNIzCvGH9ioKnabtGazNOjskXT+Ant4sAMxcEvZbYldRsFO6aVNcRwmkjCmb/P3Qxz7Ofmypjvmv+KEZFOCgU3urf1xCypCVZJ5+7xBa3iE/qqemDGLhruPGKiwNXWSjNVpeUUGDaoSVOU49fsZel81AeG6v6qUf7pR7w01TVTz+sKP3YJe6arTzib1IfOOMwrKYdUKYk65CyrCPKeMv/c4iLo1ZFUVr7hrG4ZIC5EMpdT4e1xU1dWyqA0iiWHJLcoy+b08fySPIPJH1rCIuXqSeFUOrvpGARkTV2FUVpxLGRwSnvkNhiRyr3726PFTmGuBDK3Y+HLnQ4dDEUa4PmTSV1eb8Syj0HsvSki4oo0lC+jzOWsrJfB6W1JLbNX1084lS1+ijKUr71SAaiYOcqi9LqwU0bxk0/ErY2SmvxdkONgaysxNoo0uV/uFHD+HDIf5paKCrcd4PDcF0Y5FmPDCitaefqkz/ebXQtlFZrPriqykCJEbguSqv1tLkaDMAh3wpmRJHm8uYq3UyCZGWGXwVFtsyAewDwAF6rtUhNFKkz38BoAAjwV3kbda6GIq3/d+BpGtkgnXIzIjeKlN53bRoX4GFcVUUYUaQ50/2tQSPbIziWng8J4UCRMunKtik/pLkBwMe6hPWbJUwoStrvW4lTOHVIZ2J9dWv3q1gYUaQs2uO9zhDLLJLlCfWdwU83N7RVSnhRtEx7q8NnlPUmfN8LxRfB+cPT97rLoRxIroASymTZ646Ph/3uc7A5nU4f21Hn7fX9+WnO16OQXA3l9vKH0kT5Q2mi/KE0Uf5Qmih/KE2UP5Qmyh9KE+UPpYnyh9JE+UNpoiRQlqnh554Z6llMp+TSwbTXfV4999tUeGs2m9pZEfI6SqYzOoCfdp/EN+b951V0ywvKNHUBcA1mmskQ4MH60mItLps+Pw64/O+IuPp/iW2ie6JecBdgYH+a+Ps2cQGnf0E5gpeSWd0R5jaLIeByWmqHPLgxi/CtcgAdYVU70OernyN/noCB1QJ9yCpaP92Af9k2KyCBAm7aboqOMOunUyiB78DvuN/r9fqrI/HcNMrD+1rL4QEc4ZZCWYC848e632631S33zjxG6YLj4YomFxSj6ieB0gfzPczwKyZR3Et96mewCotmoxwhdQ/xwBc7n854lyhech8igbIGXNbYugaFklC5NViHHWWi+FYFqAhlKJ+lB3R9qI7wBlJdYkwC5Qi5tdhyUB7BKtiThbIAXFM1RjkE8rWDZ/XX82O0P4WIN1ITKKvUMeNyjWyUWXkU1IWc6C+qsOeaTvaRj9GbgBvvPyZQ5IMEv/h36BrZKG2wtm1mdjDXw896RnkGlWs5BVw+NnqMntqJH5WkoEawlWTJKvaZiyIVFffuTJQx4DOFzigf4R6XncAd8PwYPV1H/dykFIq6tAub1EKMOSPY7BuCD/T3nHllE4iNsSU6RJmD0GdZPQG1DzREaUl1CQlIlNZ8A7LRH1IshpQp8vCiZSRnVbtOaDbKZKtmyNFOyagdo7wF544HHnHo0BlFqcshHUX3Us8DOis4BSUIRaiKsZbplo2iN6O5Qos2cDTKBORn2mSUim8bQ2cUdW9dOiYNRV7dV90sIHSGRnETtTqCcrrS2oJz+XU3QpE6K5tDdY1HwJVzEiiqkL3SpXQUaTScFMzIsoLzZvvlC1jlrTJRdvL7R6M6hUZxPBjL3qMy30e+vbsiRmntAv8jG0XC+GowK2a4JA3ssVXUPAulB5bF6OiPxa/SfJVo3Sem7QuKnH4kcDaKNo8EKkxSAKX14KFmyUJ5CQJsfDvhbaSCzD5AlVAjFP+Coo4Ugu5jDoq2DVFlkgIo0uAwi4BkoWx9qwKvLi5/ruK2l//THQNloMcTq+oG/TyU1sk6eqUAyk8ZlE8S5T3uU9I6hZ2Hq9YYKKpmTWBVMsbyYVkVBVDkj8xxvHwHg8se0Cc5MdjFow2Ulu/ZRZmRzG2zNR+lb/0oC0V9Gz2mOkom8YOlEPaJKiaKKg5noXz/Pl+UoytdD2xb5g3GWr/QfTMH45N0WJL5icOZo+y4xE0WqqQVGhRNFDUL4VqNLVB+/fblOB6vv7WXX2gwdpzdKJQtSBLCNTVqXn0l//gIQk6Ro5/31Xj9s/8A6dtP8ZCl5iqzo3cC84M9YJTpSCW2+Tq1SHgBbC1v9Ne2m+fSZhOxgJ2D/wSu610EfWG2k3aSH+U3CVg76yBAdZBWcEKtgisp/2cHgib9n0H09t4Ip6fj2y7AwXuIZPP7TkTPvv2HhAjMOn89Rbd0v8dL1ujkbDmfD6snCleQxeNwPl+Go8X/ACIE9YWEMsrnAAAAAElFTkSuQmCC;" vertex="1" parent="1">
          <mxGeometry x="315.06" y="237" width="48.67" height="60" as="geometry"/>
        </mxCell>
        <mxCell id="s73TaxPdMibVcEXbJFwl-1" value="" style="shape=image;verticalLabelPosition=bottom;labelBackgroundColor=#ffffff;verticalAlign=top;aspect=fixed;imageAspect=0;image=data:image/jpeg,/9j/4AAQSkZJRgABAQAAAQABAAD/2wCEAAkGBxITEhUTEhIVFRUXGBcbFxgXFxUWGRgWFxcWFxUWFxsYHSggGRolGxUXIjEhJSkrLi4uFx8zODUtNygtLisBCgoKDg0OGhAQGyslICUwLy0uLSstLS0tLS01LS4rLy0tLS0tLS0tLTUtLS0tKy0tLS0tLS0tLS0tLS0tLS0tLf/AABEIAQgAvwMBIgACEQEDEQH/xAAcAAACAgMBAQAAAAAAAAAAAAAABgUHAQMECAL/xABHEAABAwIDBQUFBQUFBwUBAAABAAIDBBEFEiEGBzFBURMiYXGBMpGhscEUQlJiciMzgrLRQ5KiwuEIJDRTY9LwVHODs/FE/8QAGgEAAgMBAQAAAAAAAAAAAAAAAAMBAgQFBv/EADARAAIBAgUCBAUDBQAAAAAAAAABAgMRBBIhMUEFEyJRcdEyYZGhwRSB4QZCsfDx/9oADAMBAAIRAxEAPwC8UIQgAQhCABCEIAEISrtdt7R0AIe/PLyiZYu/i5N9UANJNtSk7aLeXh9KS3tO2kH3Iu9r0LvZHvVcVuKYxjJIjaYKY8gSxpHi7i/00UJjWzFFSMMb6h89U4dyOFoyh3K/P0QTYmsb3zVklxTxsgbyJ/aP89dB7ilWXajFKp2X7TUSE/djLh8GWCaNkt1UktpK0mJnERt9sj8x+781bGE4PT0zAyCJsY8BqfM8SlyqJbF1AomPY7F5dTDN/G6x+JWXbF4vHqIZf4H3PwK9AmQdV89sEvvMv2zz2MbxikPelqo7cn5nN9zrhMeB75qyOwqI4529R+zf56d0+4K3pHtcLOaHDoQCPcUrY5sFh9Tc9l2T/wAcXd18RwKsqy5IdNk/spt3RV2kUmWTnE/uv9OTvRM6817S7A1dEe1icZY2m4ey4ey3MgajzCed2e8/tC2lrnDOdI5joHdGv6O8eaamnsKaaLbQhCkgEIQgAQhCABCEIAEIQgAQhJe9jaI0dC7szaWU9mw8xcHM4eTQfWyAFbeHvIldKaLDbl98r5G6nNwLI/q5R2CbFwUrftOIu7WU6hhOYZuOt/bd56KJ2HxHD6CL7RNIJKl4NmMGZzG8gfwk8yo7FtuBO9z3Ndf7ouLAchxQST+0O01VUPbS0jS10mjWM0s3q48h8E5bFbDQ0Q7SS0tSfakOuUniGX4efFat2mAiKAVUgBmnAdf8MZ1YwempTdLJyCz1KnA6ETL5ei0ucSsIlLWC73NaPzED5pGrGaIEL5jka4Xa4OHUEEe8L6UEghCEEgQqk3l7ECO9XTNsy95WD7p/G3w6hW2oXaPa2ho/2dQ/M8jWNrS82P4gOAPimU209Ck0rakDui3gGXLRVTryAWhkJ9sD7jj+IcjzVsryfjstO2pMlC94ZfMy4LXRuvfKL8bHgV6L3e7R/bqJkp/eDuSD87eJ9ePqthmaGVCEIIBCEIAEIQgAQhCAIba3H2UNLJUP1yizW/iefZb/AOdCvONRU1uK1WpdLI46C9mMb4Dg1oVhf7QOIm9NTg6WdIfH7rb/ABXPs21tBh8bmgfaKkZi7mGH2fhb1KCTXRbGUFGAax3by/gHsjwtz9Vz7VYlA+kkihpY422BBAGYZSDoR5Lme8kkk3J4kqPxx9oH+VveQEAWbuxqi7DIL8RmaPIONvhp6JkS5u8pjHh1O08S0u/vuLh8CExrDN+JmqOxAbbbVsw+EOsHTPuI2fNzvyhVjBs1ieKHt5nWY7UGQkC35GDkm2t2ffWYw99Q0/Z4Gx5AeD9LgDqM1yU/gW0CZmUFpuUy5nqIuwex9VQzOL52uhcwgsbm9u4sbHhz96e0ISpScndl0rAhCFBJlpSdNu7pJZZJqgySvkcXE5i0C/AADoE4IUqTWwNJ7lU7UbrcrTJROc62piebkj8ruvgV9biMVMdXLSuuBI3MAdLPj438bFWoqsxuEUePU0ze6yZzSfM9x/zatFKo27MTUgkrovRCEJ4kEIQgAQhCABfE0rWNLnENaBckmwAHElZkeGglxAAFyTwAHElUBvP3gOrXmmpiRTg2JHGZw5/o6DmgErkVvV2jira3PASY2NDA4/esSSR4JixmS7o2jgyKJo8sgP1VcYhh7ogzNxcL26eCZMS2niu0sBf+zjB5AODGhw146hQmmroZUpypyyyVmSai9oQTG1g4ve0e9aqbaKNxs4FnjxC6q94z07ye6JoyTytcKWULsooBHGxg4Na1o8gAFuQELnmsEIQgDZHFdLeDYg4VlVSSHVrhJFfnE8C4Hk6/vUy7GoGP7N80bXi3dL2h2vDQlJm8uUR9jX08jGzQnLbMP2kbjq23O3yJTIpPQq3yPSj8fxL7NTyT5c/Ztvlva617NYy2rpo52jLmGo6OGhC68SoxNDJE7g9jmn+IWVLWepbjQ+qCqbLGyVvsva1w8nC66Gi6rrdhjTmF+HTm0kTndnfmAe80eXEeBTltBj8VFF202bLcN7oubngrONpWIUrq5G7TV5pa2keT+xmDoX9A4kOjPvv8Ur74Rlkopfwv+Tmu/wAqj9ud4NNWUzoWRSZrtcxxs3K5p48+Vx6rl23q5ZsLoZJ2Fr87m68XAMNn+qbGNmmLbumj0HA/M1p6gH3hbFTu6beISW0VW/XQQyHn0jcevQ+iuJaBAIQhAAhCVt4u1AoKR0gt2r+5EPzEe15AaoAQ98+25uaCnd/77h/9Q+vuSRs7hOUCR47x9kdB181H4FRGaQyyEuANyT95511+aaZn2FhxWPE1f7F+56LpGBVv1FRenv7CnPHLV1QijGZznZGD6nw4kqy27PYPhbGCuLZZnC/eDn+eVg4N8Sl/czA11fI53FkbsvmXAE/+dUw71MHjdkLW3nqZ4487tS1oabNb0GnxKbtaPBxqknOUpvdsxjWy+G4hTPmw7I2VgJAZ3b2F8j2cifJVlSVF6eWN5tlsW34g34e8fFPz9nnYRV000MjnxSPEUoPV2gvbkTwW6s3Th8z3/aMrHPcQ0N1AJvbXRTGaXOgtxbHrZuu7algl5ujaT52s74gqSXFg2GspoGQR3ysFhfUnUkk+pXasz30HoEIQoAQtst3Qq5jPFN2b3AZg4XaSNAQRqFAU26ScuHa1MYbzyhzjbwzWCtxCYqskrFXBM48HwyOmhZDELMYLC+pPUnxK7EISyxW28/Z6Rr24hTXEkdjJl46ezJ6cD4Kf2ZxqDFKUtlY1zgAJYz15OHgeRTS5oIIIuDoQeYVQbUYNNhNUKyk/cudq3k2/GN35TyPJNi8ytzwUejuWBh2xNBC7PHTNzDgXFz7eWYmyWd9f/D04/wCqf5Cm7ZfaCKthEsdwb2e08Wutcjx48Ulb6Jb/AGSPmXud8m/VEL59SWk1oV9jGG5AJGcNL25HqFdm6Tbb7ZF9nnd/vEQ4n+0YNA79Q4H3qt3MBFiLi1il2ColoKpk0RsWOzN8W82nwtorUKubws39UwPafchs9/kz1ahR2z2MR1dPHURnuvaDbofvNPiCpFaTjAvN29LHzXV5Yw3jiPZxjkXX77vf8ldu8PG/slBNKD3y3Iz9b+6Pde/ovPOytLmkMh1y8L/iPP8A86qlSeWLZowlB16saa5/xyMdHTiKMNHIe88ysEr7mdqta5e+rPcWUUox2RxbFYiKPFGlxsx5LHHwktY/3gFb202FGcwObxhqI5PNoNnfAk+ipPaOiLgJGjUe15dU87C7xYzG2Csfke0ANkPsuA4Zjyd481tu5RUkeQxVHs1pQez1XoWLU0zJBle0OFwbHq03B8wVtS9jW2lHTxl5mbIfusYQ5zj9B4rdsdjj62n7d0XZAvcGi97tHB17BLyu1xN1exNoQhVJBCEIAEIXxHK11wCCRobG9j4oA0YniEcEfaSmzQWj1cQ0fNd0jweHvS7tzhL6qilij9vRzR1c03AShQbT4y1jYzhznuaAMxa4XtpchXUbrQq3ZlmpD3m7SUwpZaZr2yTPs0Nb3suoNzbgdOHHVR02FY5XaTyNpojxa0206Wbdx9TZTeD7I0GHN7aVzXPGpklIFv0t5fEqySi7t/Qhts+912Eup6IF7S18ji8gixA4N0PgAfVKO8+o7TEoYuUbAT5uJJ/lCeMC2sbWTPbTsJhjHfldoCeTWD43PRVZPV/acQqJ+IzEN8h3W29Bf1Rqs0mOw0M9WEF5r7akguDGaPtIzb2m6j6hd6FkjJxd0esq041IOEtmTG4raTJM+iee7Jd0d+Tx7TfUa+ivFeUJpXUtW2WPQse2Rvobkeuo9V6lwqubPDHMw3bIxrh5OF11Yu6ujxFWm6c3B7oqP/aAxXWnpQeGaVw/ws/ze5KmBQdnA3qdT68F871Ksz4tMOIYWRjyaBf/ABFy7niwDRyHyWXFS0SO30Kn4p1PJW+prQhCxnfAhQtdgIcbxnKeh4enRTSFaE5Rd0Jr4enWjlmrijQ0bRUxxS+yZGNfbo5wB+a9NNp2sYGMaGtaAGgaAAcLLzdtJCWyB40uOPRw4L0FsxiQqaOGYfeYL+DgLOHvC2SeaKZ5StS7NaUPJ/Y60XQl7bWSaKJtTBcugdmc38cR0kb7tfRJSu7EN2GFAXHhGJx1MLJojdjxceB5g+IK7FAHJtHizKWF0zmOc1trhgubHn5JS2h2Z+2BtZQTmKV7QbtcQ2QW0zW4O5XTvI0OBBFwRYg8x0VZ4vV1ODSkxN7WikcSGG/7Nx1LWn7vhyTIa7blJfMgavFMdpTaQzEDnlEjfe0cPNcbt5OJDQysHnGL/NPtHvToXj9oJYzzBbmHvbx9y6XbdYS7jI0+cL/+1Mu+YlbeTFer2vrZMKZOyQiU1Do3OY0eyG3AtrzKX8K2ZxDEZA6XtAy+sk2awH5WnifIK1cG2rw+eQQU7szjchoicBpxJu2w80yXVe5l2Vict+RK2jMWFYY6OHRzhkafvOe8d558bXPoq32cgyxZubjf0GgXZt7jZr6wRRm8UV2tPIn77/hYeS3xsDQAOAFgl1Xljbl6nW6TRzVHV4Wi9T6QhCzHoCF2mguxr/wm3oVb+4/Fe1w/sibugeW/wnvN9NSPRVjiUWaJ48D8NVPbga/LVTw8nxh3qx1vk/4LfhpXjY8x1illrKXmhLqpe1xKR/4p5HemYlMUp1SpgLs1SCeeY/AppJSMV8a9DpdGVsO35y/CMIQhZzqghC0VdYyMXebeHM+QUpN6IiUoxV5OyPnEaYSRuaelx4EJk3J47+8o3nrJH/naPn6lV5X4w+TusBa09NSVpoKiakmjmaC17SHNvz6g+BGnqt1KlJQaZ5bqOKpVaqcOOfM9MytsVrc0EEEXB0I6joo/ZraOCuhD4nDNbvsJ7zHcwR08VIkJMlZmZO5XEzX4NUl7QXUEzu8Br2Lzz8vmFYVLUskY18bg5jhcEG4IWKykZKx0cjQ5jhZwPAhVpUU9ZgshdCHT0TjctNyY/wCnnw6q3x+pHw+haK1VVMyRpZI0PaeLXC4Khdn9sKSrA7OQNfzjfZrr+HX0U+qNNFrpiXWbscPebtbJH4Mfp7iCtMO6ugB1MzvN4A+AT0uDFMap6duaeZjPAnU+Q4lWU5eZXLE1YLs9TUoPYRNYTxOpcfMnVKe9La0Qxmlhd+1eO+R9xh4j9RUNtRvSc4GOiaWDh2rh3v4Ry8ykfDKcTSF80lyTcgm7nHxTqVFyd2KqVVFaGdnahjXkO0LhYH6eqaEt4zg+Tvxju8x0/wBF9YRjNrMkOnJ3TzVcTh5XujrdK6jBRVKWi4fuMSFgFZWE9GYcLi3Vcu6mq7LFI+hErT5ZHH5tC60v7OSZK5pHIyfyOC14V6s4XW14YP1/Bz4I3LU2PLOPmE0KAxKLscSlZwyzyD0zG3wU+q4peJDujSvRa+f4QLD3AC5NguTE68RNuRcngEtzVU07sup6NHBUpUJT14H4zqNPD+HeXl7kliGPfdi/vH6Bc1HhMkxzvJAPM8T5KTwzBGss5/ed8B/VScszW8SurRw0YLU8ji+o1a8tX7GmjoI4x3W69TqUYlTsewtfp0PQrTLXE+yLLkc4nibrS2rWMCve7IihzxTsAlMJzAdoCRlBNs2nJW9FQbQRgGKanrI/uuu3vDkSTY/FVpLE1wsRddOEYzW0f/CznL/y3d5vu/pZZZ0jZCsNu0+1OMUkX+80scOfutkac1ja+neIvZJJZiEg7QzSEu11kNyD5ro2r2xqMQ7FlQ1rezcfZv3i6wuQeHD4qZe+2gWKtPt2yo7fTcHDEqTqN6W2ESpp5GG72uaep/qpvAscxAuEUFU+9u610gsfBufS/gp17rizgCOhURiGz7HDNGQw9D7P+iiOIUtJIbiOjzj4qLv8tn7Ey6g2gm7pdMAfztYPgdVDbQbKvpW56upZ2rvZjbmkefE3sAPFfOEV1fd0cdY9oZx75cPS91xhx+1E1ZdK465jdxJ5afRMz2en2OfHCzaTkrJu13scuHYPJLqBlb+I/TqurE8CMTO0a/Na19LW8QmYSgtGUEDxFvguWuZmjePyn5LP+om5fI7j6TQjRa3lbf8Ag5sLxDOwZ+PC/wANVH4vgtrviGnEt+oWnCT3PVStNVFuh1C7CtKOp4t3hJ5SMwHESHCN2rTw8D08kyJWpGB1V3eGYn0H+qaVx8TFKeh7To9Sc6Hi4egKB2ZiL69rRzMnwY8qde6wJ6Bc+6Sl7XFI+Ya2Vx9WFvzcFfCrcz9blpBev4M73KIw4rK7lJkkHqLH4tK3RvuAeoB96at/+E3bT1QHAujf5HvMJ9QR6pGwKfNCOrdD9FbFR0TFdFq2nKHmr/Q5NqIu6x3Qke//APFv2ZLDGbABwPePM9F2YlT543N5208xqEvbPVGWWx4O09eSdgp8GXrtBqpm81f6aDBXzOBsDYWXASpDEm6AqPXQluefjsCEIVSQQhCAOPEm6Nd0cPcmd5vqOYCgKmPM0jqF3YLU54m34t7p9OHwXOx0NpHpf6frJOdN86/T/p3rXNAx4s9ocETTtYLucAPFRzRPVksp2kMHtPOgPhf6LJSpSm/CdrGYujQg+5Z/IjoqxsEzxGMzTYWB5romZPHKypngkjjPAlhAtYgceadN0WIxNMlHJG1s2YuDiNXW0LTfmPknzGMVg+2RYbJBI8zMuXlodHwJsQeWnHkt3bXO+x5n9ZU0UdEnmS4WtyoGYxC7+099ws1NdHkcQ9p0PAjopjafZKmixWOmbHljdFnc0OdYm7upuBpwW7EdiaZ7SI29m7kQSRfxB5KscEnqmaZ9fnHwyiteRJwxtmDxuV0yOsCei56MOaXRuschLbjUadFjE5LMPjotydonBavM3bMw+3IfIfMqeXHhMGSJo52ufM6rsXEqyzTbPe4Kl2qEY/7qcmKy5Ynnwt79Eyf7P9BeoqJ7aMjawebzc/Bg96S9p57NazqbnyCubcrhPY4c15FnTuMn8Pss+AB9Vrw0bQv5nB6xVzV8vkv5GDbjBRWUU0H3i27PB7e80+8Lzds/OWSmN2l7gg8nDl8wvV687b3tnTSVvbRi0c5ztI4CQe236+pTpxzRaMGHrOjUU1wCUcUiMUxI65h80y4fVCRgcPXwPNR200F2Nf8AhNj5H/VYqEnCdmej6lTjXw2ePGv7EpM7PHccwCoxdOBSZoAOl2/0XMV227pM8PazaBCEKpJz1k5aBbmQF1yxlpsVxVzL5P1hS+J8R6oXJL2RxLgfFKwnsnEB2p4LvXPXXyHLx+nNVnFSWoylUlCV4uxu2XwF1XIXSOPZsPeN/aP4QrOpqdkbQxjQ1o4AKv8AZHaqOBghlZZtyc411P4h/RP9JVMkbmjeHN6g3U0lFLQXiHNy12E/bSkdTzR10OjmuGa3UcCfMaFWsduqOKjgq53WEtmtIbmcCRcjTgBzStiVG2aJ8buDgR68j71GbpKiNxlw6rjZJ2b87GvAIBBs6wPQ2P8AEl1Y2dx1CeaNnwd21DxJjmYG4bSst5OLv+5cO12LdhDZn7yTus8OrvQLrxSVpxaukJAbEyJhPIWaHH6pCr681Mzpj7Psxjo0c/Mq0HaNilRXnd8GiCLK0D3+J5lckze0mZHyB1+ZXa91gSeS17ORZnvlPkPXil4ieSBr6dQ72IimT6EKNx2syR2B7ztB5cyuPGLk7I9xWqxpQc5bIjIqZ1bWMhZ/aPDB4Nv3neguV6noKVsUbImCzWNDQPACyp7cRs3dz66QaC7Ir9fvuHyV0LqJWVkeIqTc5uT3YJf252bbX0j4TYP9qN34Xjh6HgfNMCFJQ8n0Er6aZ0UoLbOLXg/dcDa6nsRjzxPH5dPmnvfJsOZWmup23kaP2zQNXtH3wObhz6hVdgeJXHZPPg0/RZq9PXOjtdNxayvD1Nnt+/B9bKSaPb5H36fRdE4s4+aj9njlnc3wcPcVJ1w759F0oO8Eebqq1RmhCFy1725SC6x4jrfkpbsVSu7Gyo4s/W35qTxPiErGtcct9cpB9yka3HQ61mWt1IVVUWpeVKWh1oUfDUzSfu4XP/S17/kFIQYLicnsUc3rGW/zWUdxE9qRz1FEx3Kx6hcsPbwOzRPcPFv1HNTzNisZd/8AySDzMY/zL6OwOM/+mf8A3o/6qjlFjIxktDZhe3zx3aiPN+Zmh9QVzYhjscdbFW0zr8M7bEHTRwIPVq0VOwmKjV1FKfEZD8nKCrcPmiNpYpI/1Nc33EixVXNtWZaNOKd0TldjbpzMG3HbyukkP5L9xnuXyAALKEjp5bd1r7eAK3YRhk9VKIYGl8hBIbcDQceJVlKy2Kyhme5uxSoGXKDqePkt1PizIowxgzO4k8Bc/Nasc2cqqR7GVMRjc/VtyCDrbiFbeyW6OlbG2Wsf2rrXLQcsbfPm5KqJVNzVhq0sPdw3fJUcVTVVL8kQe9x4NjB+n1TO/dTihi7UsYXWv2ee77fK/hdWpRbU4dDJ9lw+AzSDQtp4xlH65OA9SnGme4tBezIemYOt6hCilsiKlWc3eTb9SmN0u2ssMzcOqhZly2O4yujfqcjvA68eau1UbvywnsKqGsiGUyaEj/mx2c13nb5K3tmMVFVSwzj+0Y0nwdbvD33UiyUQhCCDBCo/eru6MLnVlI28R1ljbxjPN7R+H5K8VhwvodQgDyTgkn7dh6k/EFT+Ijvei+ds6NkGLysjaGs7UENGgAcBw96+8S9oeS0UvhZnrfGmci+2xwk3fGCeq+EKwo14tBD2TixoDgLjSyv3ZPZugFPDLHSwhzo2EuyNJJLRc3PiqBq23Y4eBV/bsKrtMLpTzDMp82khJq7mik9Bljha32WgeQAWxCEsaCwsoQAKpd9EWajDubZm+4hwP0VtKsN7jL0Evg9h/wAVvqglCCyZoaLkcB8lx7vKgRYvTnkZHNPk5rrfGy5IuA8guGmqOyrIpOGSWN3oHNJ+CfVd0jNQVmy7N+WFiTD+2A70D2uB/K45XD3lp9FMbP00ddhkLJS8sexmYMcWF1gAQS0g2JC7NvYhJhlUP+g9w8w3MPiFCbn6sHDYgSBYOGvUOP8AVINJmj+20t4qHCIo4gdC6eMF3ictzfzJTRg9TVPH+8U8cX6Ze0+GUW96h6ykxNziY6+naOTewPDxObVSGEtrmkfaJqaQcyxr4z8SQUEC9vqoe0w1zraxva8eQNnfAqN3C4mX0ksBP7qS7f0yC/8AMHJn28e11LO0+yIn387aJF/2eYDlq38iYm+oDif5ggkuJCEIIBCEIA8471e7jEh4axH4Bclc8Fwsbi3JPu9vYCpqJ/tdK3tCWhr47gO7ugLb8dOXFVDK2aB5ZI1zHDi14I+BTITy6C6lPNqTCFxU+INOjtD8F2Apqaewhxa3Bw0Kt7cXV5sPdHzjlePR3eHzVRJ/3C1dpayD9Eg+LT8gl1RtHkuNCwspQ4EIWEAZVcb0o74fU+GU+6RqsdI238Oaiqx/03n+7r9EEopKnPcb5D5KJxZvfPkFtixLK0ANuQOq1Bsk7w1jC950DWAkn0CbKSasJhBqVy5cb23pTQFj6gOkkgyhjbuOYstY20GqT9iNv4qKl7CSJ7yHucC0gCzraa+SsTYbdrSRU0T6qma+oc0F4k7waTrly+zomyXZiicws+zQhpBBsxo0PSw0ShxWdLvLdMbU+HzSeRBHqQLBNOC4pUy/vqJ1OOrpGO+DUuv3QTxFxo8QdGCdGkObpyBLXa+5c0m6nEpNJcRBHi6V3wKAPjentbG2F1JC8OkfpIWm4a3mLjmU77qMBNJh8YeLSSkyPHMF1soPiGgKH2X3Q01PI2WeR1Q9puAQGszDgSLkut4lWSgAQhCCAQhCABRuN4DTVbMlRC2QciR3h+l3EKSQgClNqNzL23fQyZx/y5DYjwa7gfVVtiGGVVI7LNFJER+IHL7+C9aLXNA14s9rXDo4Aj4oA8lMxN3MApv3Q4pkxVl9BM17LeNsw/lKuuo2Kw55u+igJ65AqV25oG4bjDJImhkWaKVoAsA24EjQOlgfepcmyFFLY9EoXxG8OAcOBAI9V9KCTKFhZQAJT2uZeCqHWOT+UprS5tMy8cw6xu+LSgBK3aYNTuoIpHQxl7g8OcWgn23Dn4Jf3SRCLGpoiLENnA9HtIHuTTuqffDo/Bzx/iJ+qVK6b7JtFHJwD3sJ8RKMnzsgkvtCEIIBCEIAEIQgAQhCABCEIAEIQgAQhCABVPv+wnNBDUgaxuLHH8r+HxCthQm2mE/aqKeG1y5hy/qb3m29R8UAcW7TFPtGG07ybua3I79UfdN/O1/VNCpfcXj7IhPSzSNZ3g9mYgd72XtF/JvxVzNcCLggjqEAfSFhZQAKGx2O4I6sI+BUtJK1vEgKKr6gP4DQX1QBTmwe21LR0ZimL+0EjyGtaTobW14dVB4rixxLE4HwROaS6JrQdT3XAlxtwsNfRbdkdnYanFn0s9zHmm9l1r5CS3Ucle+AbKUdH/w8DWO5u4uP8R1QSTTRoFlCEEAhCEACEIQAIQhAAhCEACEIQAIQhAAhCEAUVtxurrDUyzUrGSRPcXNYHBrmk6kWdYWvfmlZlBjNIe6ysitzb2hHvFwsoQSdMW8HGItDO/8A+SMH5hbzvWxY6dqz0iZdCEAaXbcYvLwc4/oiH0C0SUmNVWjmVjweoe1vvNghCALE3W7uZqWYVdWQ2QAhkYOYjMLFzyNL25BWshCCAQhCABCEIAEIQgD/2Q==;" vertex="1" parent="1">
          <mxGeometry x="115.06" y="188" width="57.88" height="80" as="geometry"/>
        </mxCell>
        <mxCell id="s73TaxPdMibVcEXbJFwl-2" value="" style="shape=image;verticalLabelPosition=bottom;labelBackgroundColor=#ffffff;verticalAlign=top;aspect=fixed;imageAspect=0;image=data:image/jpeg,/9j/4AAQSkZJRgABAQAAAQABAAD/2wCEAAkGBxITEhUTEhIVFRUXGBcbFxgXFxUWGRgWFxcWFxUWFxsYHSggGRolGxUXIjEhJSkrLi4uFx8zODUtNygtLisBCgoKDg0OGhAQGyslICUwLy0uLSstLS0tLS01LS4rLy0tLS0tLS0tLTUtLS0tKy0tLS0tLS0tLS0tLS0tLS0tLf/AABEIAQgAvwMBIgACEQEDEQH/xAAcAAACAgMBAQAAAAAAAAAAAAAABgUHAQMECAL/xABHEAABAwIDBQUFBQUFBwUBAAABAAIDBBEFEiEGBzFBURMiYXGBMpGhscEUQlJiciMzgrLRQ5KiwuEIJDRTY9LwVHODs/FE/8QAGgEAAgMBAQAAAAAAAAAAAAAAAAMBAgQFBv/EADARAAIBAgUCBAUDBQAAAAAAAAABAgMRBBIhMUEFEyJRcdEyYZGhwRSB4QZCsfDx/9oADAMBAAIRAxEAPwC8UIQgAQhCABCEIAEISrtdt7R0AIe/PLyiZYu/i5N9UANJNtSk7aLeXh9KS3tO2kH3Iu9r0LvZHvVcVuKYxjJIjaYKY8gSxpHi7i/00UJjWzFFSMMb6h89U4dyOFoyh3K/P0QTYmsb3zVklxTxsgbyJ/aP89dB7ilWXajFKp2X7TUSE/djLh8GWCaNkt1UktpK0mJnERt9sj8x+781bGE4PT0zAyCJsY8BqfM8SlyqJbF1AomPY7F5dTDN/G6x+JWXbF4vHqIZf4H3PwK9AmQdV89sEvvMv2zz2MbxikPelqo7cn5nN9zrhMeB75qyOwqI4529R+zf56d0+4K3pHtcLOaHDoQCPcUrY5sFh9Tc9l2T/wAcXd18RwKsqy5IdNk/spt3RV2kUmWTnE/uv9OTvRM6817S7A1dEe1icZY2m4ey4ey3MgajzCed2e8/tC2lrnDOdI5joHdGv6O8eaamnsKaaLbQhCkgEIQgAQhCABCEIAEIQgAQhJe9jaI0dC7szaWU9mw8xcHM4eTQfWyAFbeHvIldKaLDbl98r5G6nNwLI/q5R2CbFwUrftOIu7WU6hhOYZuOt/bd56KJ2HxHD6CL7RNIJKl4NmMGZzG8gfwk8yo7FtuBO9z3Ndf7ouLAchxQST+0O01VUPbS0jS10mjWM0s3q48h8E5bFbDQ0Q7SS0tSfakOuUniGX4efFat2mAiKAVUgBmnAdf8MZ1YwempTdLJyCz1KnA6ETL5ei0ucSsIlLWC73NaPzED5pGrGaIEL5jka4Xa4OHUEEe8L6UEghCEEgQqk3l7ECO9XTNsy95WD7p/G3w6hW2oXaPa2ho/2dQ/M8jWNrS82P4gOAPimU209Ck0rakDui3gGXLRVTryAWhkJ9sD7jj+IcjzVsryfjstO2pMlC94ZfMy4LXRuvfKL8bHgV6L3e7R/bqJkp/eDuSD87eJ9ePqthmaGVCEIIBCEIAEIQgAQhCAIba3H2UNLJUP1yizW/iefZb/AOdCvONRU1uK1WpdLI46C9mMb4Dg1oVhf7QOIm9NTg6WdIfH7rb/ABXPs21tBh8bmgfaKkZi7mGH2fhb1KCTXRbGUFGAax3by/gHsjwtz9Vz7VYlA+kkihpY422BBAGYZSDoR5Lme8kkk3J4kqPxx9oH+VveQEAWbuxqi7DIL8RmaPIONvhp6JkS5u8pjHh1O08S0u/vuLh8CExrDN+JmqOxAbbbVsw+EOsHTPuI2fNzvyhVjBs1ieKHt5nWY7UGQkC35GDkm2t2ffWYw99Q0/Z4Gx5AeD9LgDqM1yU/gW0CZmUFpuUy5nqIuwex9VQzOL52uhcwgsbm9u4sbHhz96e0ISpScndl0rAhCFBJlpSdNu7pJZZJqgySvkcXE5i0C/AADoE4IUqTWwNJ7lU7UbrcrTJROc62piebkj8ruvgV9biMVMdXLSuuBI3MAdLPj438bFWoqsxuEUePU0ze6yZzSfM9x/zatFKo27MTUgkrovRCEJ4kEIQgAQhCABfE0rWNLnENaBckmwAHElZkeGglxAAFyTwAHElUBvP3gOrXmmpiRTg2JHGZw5/o6DmgErkVvV2jira3PASY2NDA4/esSSR4JixmS7o2jgyKJo8sgP1VcYhh7ogzNxcL26eCZMS2niu0sBf+zjB5AODGhw146hQmmroZUpypyyyVmSai9oQTG1g4ve0e9aqbaKNxs4FnjxC6q94z07ye6JoyTytcKWULsooBHGxg4Na1o8gAFuQELnmsEIQgDZHFdLeDYg4VlVSSHVrhJFfnE8C4Hk6/vUy7GoGP7N80bXi3dL2h2vDQlJm8uUR9jX08jGzQnLbMP2kbjq23O3yJTIpPQq3yPSj8fxL7NTyT5c/Ztvlva617NYy2rpo52jLmGo6OGhC68SoxNDJE7g9jmn+IWVLWepbjQ+qCqbLGyVvsva1w8nC66Gi6rrdhjTmF+HTm0kTndnfmAe80eXEeBTltBj8VFF202bLcN7oubngrONpWIUrq5G7TV5pa2keT+xmDoX9A4kOjPvv8Ur74Rlkopfwv+Tmu/wAqj9ud4NNWUzoWRSZrtcxxs3K5p48+Vx6rl23q5ZsLoZJ2Fr87m68XAMNn+qbGNmmLbumj0HA/M1p6gH3hbFTu6beISW0VW/XQQyHn0jcevQ+iuJaBAIQhAAhCVt4u1AoKR0gt2r+5EPzEe15AaoAQ98+25uaCnd/77h/9Q+vuSRs7hOUCR47x9kdB181H4FRGaQyyEuANyT95511+aaZn2FhxWPE1f7F+56LpGBVv1FRenv7CnPHLV1QijGZznZGD6nw4kqy27PYPhbGCuLZZnC/eDn+eVg4N8Sl/czA11fI53FkbsvmXAE/+dUw71MHjdkLW3nqZ4487tS1oabNb0GnxKbtaPBxqknOUpvdsxjWy+G4hTPmw7I2VgJAZ3b2F8j2cifJVlSVF6eWN5tlsW34g34e8fFPz9nnYRV000MjnxSPEUoPV2gvbkTwW6s3Th8z3/aMrHPcQ0N1AJvbXRTGaXOgtxbHrZuu7algl5ujaT52s74gqSXFg2GspoGQR3ysFhfUnUkk+pXasz30HoEIQoAQtst3Qq5jPFN2b3AZg4XaSNAQRqFAU26ScuHa1MYbzyhzjbwzWCtxCYqskrFXBM48HwyOmhZDELMYLC+pPUnxK7EISyxW28/Z6Rr24hTXEkdjJl46ezJ6cD4Kf2ZxqDFKUtlY1zgAJYz15OHgeRTS5oIIIuDoQeYVQbUYNNhNUKyk/cudq3k2/GN35TyPJNi8ytzwUejuWBh2xNBC7PHTNzDgXFz7eWYmyWd9f/D04/wCqf5Cm7ZfaCKthEsdwb2e08Wutcjx48Ulb6Jb/AGSPmXud8m/VEL59SWk1oV9jGG5AJGcNL25HqFdm6Tbb7ZF9nnd/vEQ4n+0YNA79Q4H3qt3MBFiLi1il2ColoKpk0RsWOzN8W82nwtorUKubws39UwPafchs9/kz1ahR2z2MR1dPHURnuvaDbofvNPiCpFaTjAvN29LHzXV5Yw3jiPZxjkXX77vf8ldu8PG/slBNKD3y3Iz9b+6Pde/ovPOytLmkMh1y8L/iPP8A86qlSeWLZowlB16saa5/xyMdHTiKMNHIe88ysEr7mdqta5e+rPcWUUox2RxbFYiKPFGlxsx5LHHwktY/3gFb202FGcwObxhqI5PNoNnfAk+ipPaOiLgJGjUe15dU87C7xYzG2Csfke0ANkPsuA4Zjyd481tu5RUkeQxVHs1pQez1XoWLU0zJBle0OFwbHq03B8wVtS9jW2lHTxl5mbIfusYQ5zj9B4rdsdjj62n7d0XZAvcGi97tHB17BLyu1xN1exNoQhVJBCEIAEIXxHK11wCCRobG9j4oA0YniEcEfaSmzQWj1cQ0fNd0jweHvS7tzhL6qilij9vRzR1c03AShQbT4y1jYzhznuaAMxa4XtpchXUbrQq3ZlmpD3m7SUwpZaZr2yTPs0Nb3suoNzbgdOHHVR02FY5XaTyNpojxa0206Wbdx9TZTeD7I0GHN7aVzXPGpklIFv0t5fEqySi7t/Qhts+912Eup6IF7S18ji8gixA4N0PgAfVKO8+o7TEoYuUbAT5uJJ/lCeMC2sbWTPbTsJhjHfldoCeTWD43PRVZPV/acQqJ+IzEN8h3W29Bf1Rqs0mOw0M9WEF5r7akguDGaPtIzb2m6j6hd6FkjJxd0esq041IOEtmTG4raTJM+iee7Jd0d+Tx7TfUa+ivFeUJpXUtW2WPQse2Rvobkeuo9V6lwqubPDHMw3bIxrh5OF11Yu6ujxFWm6c3B7oqP/aAxXWnpQeGaVw/ws/ze5KmBQdnA3qdT68F871Ksz4tMOIYWRjyaBf/ABFy7niwDRyHyWXFS0SO30Kn4p1PJW+prQhCxnfAhQtdgIcbxnKeh4enRTSFaE5Rd0Jr4enWjlmrijQ0bRUxxS+yZGNfbo5wB+a9NNp2sYGMaGtaAGgaAAcLLzdtJCWyB40uOPRw4L0FsxiQqaOGYfeYL+DgLOHvC2SeaKZ5StS7NaUPJ/Y60XQl7bWSaKJtTBcugdmc38cR0kb7tfRJSu7EN2GFAXHhGJx1MLJojdjxceB5g+IK7FAHJtHizKWF0zmOc1trhgubHn5JS2h2Z+2BtZQTmKV7QbtcQ2QW0zW4O5XTvI0OBBFwRYg8x0VZ4vV1ODSkxN7WikcSGG/7Nx1LWn7vhyTIa7blJfMgavFMdpTaQzEDnlEjfe0cPNcbt5OJDQysHnGL/NPtHvToXj9oJYzzBbmHvbx9y6XbdYS7jI0+cL/+1Mu+YlbeTFer2vrZMKZOyQiU1Do3OY0eyG3AtrzKX8K2ZxDEZA6XtAy+sk2awH5WnifIK1cG2rw+eQQU7szjchoicBpxJu2w80yXVe5l2Vict+RK2jMWFYY6OHRzhkafvOe8d558bXPoq32cgyxZubjf0GgXZt7jZr6wRRm8UV2tPIn77/hYeS3xsDQAOAFgl1Xljbl6nW6TRzVHV4Wi9T6QhCzHoCF2mguxr/wm3oVb+4/Fe1w/sibugeW/wnvN9NSPRVjiUWaJ48D8NVPbga/LVTw8nxh3qx1vk/4LfhpXjY8x1illrKXmhLqpe1xKR/4p5HemYlMUp1SpgLs1SCeeY/AppJSMV8a9DpdGVsO35y/CMIQhZzqghC0VdYyMXebeHM+QUpN6IiUoxV5OyPnEaYSRuaelx4EJk3J47+8o3nrJH/naPn6lV5X4w+TusBa09NSVpoKiakmjmaC17SHNvz6g+BGnqt1KlJQaZ5bqOKpVaqcOOfM9MytsVrc0EEEXB0I6joo/ZraOCuhD4nDNbvsJ7zHcwR08VIkJMlZmZO5XEzX4NUl7QXUEzu8Br2Lzz8vmFYVLUskY18bg5jhcEG4IWKykZKx0cjQ5jhZwPAhVpUU9ZgshdCHT0TjctNyY/wCnnw6q3x+pHw+haK1VVMyRpZI0PaeLXC4Khdn9sKSrA7OQNfzjfZrr+HX0U+qNNFrpiXWbscPebtbJH4Mfp7iCtMO6ugB1MzvN4A+AT0uDFMap6duaeZjPAnU+Q4lWU5eZXLE1YLs9TUoPYRNYTxOpcfMnVKe9La0Qxmlhd+1eO+R9xh4j9RUNtRvSc4GOiaWDh2rh3v4Ry8ykfDKcTSF80lyTcgm7nHxTqVFyd2KqVVFaGdnahjXkO0LhYH6eqaEt4zg+Tvxju8x0/wBF9YRjNrMkOnJ3TzVcTh5XujrdK6jBRVKWi4fuMSFgFZWE9GYcLi3Vcu6mq7LFI+hErT5ZHH5tC60v7OSZK5pHIyfyOC14V6s4XW14YP1/Bz4I3LU2PLOPmE0KAxKLscSlZwyzyD0zG3wU+q4peJDujSvRa+f4QLD3AC5NguTE68RNuRcngEtzVU07sup6NHBUpUJT14H4zqNPD+HeXl7kliGPfdi/vH6Bc1HhMkxzvJAPM8T5KTwzBGss5/ed8B/VScszW8SurRw0YLU8ji+o1a8tX7GmjoI4x3W69TqUYlTsewtfp0PQrTLXE+yLLkc4nibrS2rWMCve7IihzxTsAlMJzAdoCRlBNs2nJW9FQbQRgGKanrI/uuu3vDkSTY/FVpLE1wsRddOEYzW0f/CznL/y3d5vu/pZZZ0jZCsNu0+1OMUkX+80scOfutkac1ja+neIvZJJZiEg7QzSEu11kNyD5ro2r2xqMQ7FlQ1rezcfZv3i6wuQeHD4qZe+2gWKtPt2yo7fTcHDEqTqN6W2ESpp5GG72uaep/qpvAscxAuEUFU+9u610gsfBufS/gp17rizgCOhURiGz7HDNGQw9D7P+iiOIUtJIbiOjzj4qLv8tn7Ey6g2gm7pdMAfztYPgdVDbQbKvpW56upZ2rvZjbmkefE3sAPFfOEV1fd0cdY9oZx75cPS91xhx+1E1ZdK465jdxJ5afRMz2en2OfHCzaTkrJu13scuHYPJLqBlb+I/TqurE8CMTO0a/Na19LW8QmYSgtGUEDxFvguWuZmjePyn5LP+om5fI7j6TQjRa3lbf8Ag5sLxDOwZ+PC/wANVH4vgtrviGnEt+oWnCT3PVStNVFuh1C7CtKOp4t3hJ5SMwHESHCN2rTw8D08kyJWpGB1V3eGYn0H+qaVx8TFKeh7To9Sc6Hi4egKB2ZiL69rRzMnwY8qde6wJ6Bc+6Sl7XFI+Ya2Vx9WFvzcFfCrcz9blpBev4M73KIw4rK7lJkkHqLH4tK3RvuAeoB96at/+E3bT1QHAujf5HvMJ9QR6pGwKfNCOrdD9FbFR0TFdFq2nKHmr/Q5NqIu6x3Qke//APFv2ZLDGbABwPePM9F2YlT543N5208xqEvbPVGWWx4O09eSdgp8GXrtBqpm81f6aDBXzOBsDYWXASpDEm6AqPXQluefjsCEIVSQQhCAOPEm6Nd0cPcmd5vqOYCgKmPM0jqF3YLU54m34t7p9OHwXOx0NpHpf6frJOdN86/T/p3rXNAx4s9ocETTtYLucAPFRzRPVksp2kMHtPOgPhf6LJSpSm/CdrGYujQg+5Z/IjoqxsEzxGMzTYWB5romZPHKypngkjjPAlhAtYgceadN0WIxNMlHJG1s2YuDiNXW0LTfmPknzGMVg+2RYbJBI8zMuXlodHwJsQeWnHkt3bXO+x5n9ZU0UdEnmS4WtyoGYxC7+099ws1NdHkcQ9p0PAjopjafZKmixWOmbHljdFnc0OdYm7upuBpwW7EdiaZ7SI29m7kQSRfxB5KscEnqmaZ9fnHwyiteRJwxtmDxuV0yOsCei56MOaXRuschLbjUadFjE5LMPjotydonBavM3bMw+3IfIfMqeXHhMGSJo52ufM6rsXEqyzTbPe4Kl2qEY/7qcmKy5Ynnwt79Eyf7P9BeoqJ7aMjawebzc/Bg96S9p57NazqbnyCubcrhPY4c15FnTuMn8Pss+AB9Vrw0bQv5nB6xVzV8vkv5GDbjBRWUU0H3i27PB7e80+8Lzds/OWSmN2l7gg8nDl8wvV687b3tnTSVvbRi0c5ztI4CQe236+pTpxzRaMGHrOjUU1wCUcUiMUxI65h80y4fVCRgcPXwPNR200F2Nf8AhNj5H/VYqEnCdmej6lTjXw2ePGv7EpM7PHccwCoxdOBSZoAOl2/0XMV227pM8PazaBCEKpJz1k5aBbmQF1yxlpsVxVzL5P1hS+J8R6oXJL2RxLgfFKwnsnEB2p4LvXPXXyHLx+nNVnFSWoylUlCV4uxu2XwF1XIXSOPZsPeN/aP4QrOpqdkbQxjQ1o4AKv8AZHaqOBghlZZtyc411P4h/RP9JVMkbmjeHN6g3U0lFLQXiHNy12E/bSkdTzR10OjmuGa3UcCfMaFWsduqOKjgq53WEtmtIbmcCRcjTgBzStiVG2aJ8buDgR68j71GbpKiNxlw6rjZJ2b87GvAIBBs6wPQ2P8AEl1Y2dx1CeaNnwd21DxJjmYG4bSst5OLv+5cO12LdhDZn7yTus8OrvQLrxSVpxaukJAbEyJhPIWaHH6pCr681Mzpj7Psxjo0c/Mq0HaNilRXnd8GiCLK0D3+J5lckze0mZHyB1+ZXa91gSeS17ORZnvlPkPXil4ieSBr6dQ72IimT6EKNx2syR2B7ztB5cyuPGLk7I9xWqxpQc5bIjIqZ1bWMhZ/aPDB4Nv3neguV6noKVsUbImCzWNDQPACyp7cRs3dz66QaC7Ir9fvuHyV0LqJWVkeIqTc5uT3YJf252bbX0j4TYP9qN34Xjh6HgfNMCFJQ8n0Er6aZ0UoLbOLXg/dcDa6nsRjzxPH5dPmnvfJsOZWmup23kaP2zQNXtH3wObhz6hVdgeJXHZPPg0/RZq9PXOjtdNxayvD1Nnt+/B9bKSaPb5H36fRdE4s4+aj9njlnc3wcPcVJ1w759F0oO8Eebqq1RmhCFy1725SC6x4jrfkpbsVSu7Gyo4s/W35qTxPiErGtcct9cpB9yka3HQ61mWt1IVVUWpeVKWh1oUfDUzSfu4XP/S17/kFIQYLicnsUc3rGW/zWUdxE9qRz1FEx3Kx6hcsPbwOzRPcPFv1HNTzNisZd/8AySDzMY/zL6OwOM/+mf8A3o/6qjlFjIxktDZhe3zx3aiPN+Zmh9QVzYhjscdbFW0zr8M7bEHTRwIPVq0VOwmKjV1FKfEZD8nKCrcPmiNpYpI/1Nc33EixVXNtWZaNOKd0TldjbpzMG3HbyukkP5L9xnuXyAALKEjp5bd1r7eAK3YRhk9VKIYGl8hBIbcDQceJVlKy2Kyhme5uxSoGXKDqePkt1PizIowxgzO4k8Bc/Nasc2cqqR7GVMRjc/VtyCDrbiFbeyW6OlbG2Wsf2rrXLQcsbfPm5KqJVNzVhq0sPdw3fJUcVTVVL8kQe9x4NjB+n1TO/dTihi7UsYXWv2ee77fK/hdWpRbU4dDJ9lw+AzSDQtp4xlH65OA9SnGme4tBezIemYOt6hCilsiKlWc3eTb9SmN0u2ssMzcOqhZly2O4yujfqcjvA68eau1UbvywnsKqGsiGUyaEj/mx2c13nb5K3tmMVFVSwzj+0Y0nwdbvD33UiyUQhCCDBCo/eru6MLnVlI28R1ljbxjPN7R+H5K8VhwvodQgDyTgkn7dh6k/EFT+Ijvei+ds6NkGLysjaGs7UENGgAcBw96+8S9oeS0UvhZnrfGmci+2xwk3fGCeq+EKwo14tBD2TixoDgLjSyv3ZPZugFPDLHSwhzo2EuyNJJLRc3PiqBq23Y4eBV/bsKrtMLpTzDMp82khJq7mik9Bljha32WgeQAWxCEsaCwsoQAKpd9EWajDubZm+4hwP0VtKsN7jL0Evg9h/wAVvqglCCyZoaLkcB8lx7vKgRYvTnkZHNPk5rrfGy5IuA8guGmqOyrIpOGSWN3oHNJ+CfVd0jNQVmy7N+WFiTD+2A70D2uB/K45XD3lp9FMbP00ddhkLJS8sexmYMcWF1gAQS0g2JC7NvYhJhlUP+g9w8w3MPiFCbn6sHDYgSBYOGvUOP8AVINJmj+20t4qHCIo4gdC6eMF3ictzfzJTRg9TVPH+8U8cX6Ze0+GUW96h6ykxNziY6+naOTewPDxObVSGEtrmkfaJqaQcyxr4z8SQUEC9vqoe0w1zraxva8eQNnfAqN3C4mX0ksBP7qS7f0yC/8AMHJn28e11LO0+yIn387aJF/2eYDlq38iYm+oDif5ggkuJCEIIBCEIA8471e7jEh4axH4Bclc8Fwsbi3JPu9vYCpqJ/tdK3tCWhr47gO7ugLb8dOXFVDK2aB5ZI1zHDi14I+BTITy6C6lPNqTCFxU+INOjtD8F2Apqaewhxa3Bw0Kt7cXV5sPdHzjlePR3eHzVRJ/3C1dpayD9Eg+LT8gl1RtHkuNCwspQ4EIWEAZVcb0o74fU+GU+6RqsdI238Oaiqx/03n+7r9EEopKnPcb5D5KJxZvfPkFtixLK0ANuQOq1Bsk7w1jC950DWAkn0CbKSasJhBqVy5cb23pTQFj6gOkkgyhjbuOYstY20GqT9iNv4qKl7CSJ7yHucC0gCzraa+SsTYbdrSRU0T6qma+oc0F4k7waTrly+zomyXZiicws+zQhpBBsxo0PSw0ShxWdLvLdMbU+HzSeRBHqQLBNOC4pUy/vqJ1OOrpGO+DUuv3QTxFxo8QdGCdGkObpyBLXa+5c0m6nEpNJcRBHi6V3wKAPjentbG2F1JC8OkfpIWm4a3mLjmU77qMBNJh8YeLSSkyPHMF1soPiGgKH2X3Q01PI2WeR1Q9puAQGszDgSLkut4lWSgAQhCCAQhCABRuN4DTVbMlRC2QciR3h+l3EKSQgClNqNzL23fQyZx/y5DYjwa7gfVVtiGGVVI7LNFJER+IHL7+C9aLXNA14s9rXDo4Aj4oA8lMxN3MApv3Q4pkxVl9BM17LeNsw/lKuuo2Kw55u+igJ65AqV25oG4bjDJImhkWaKVoAsA24EjQOlgfepcmyFFLY9EoXxG8OAcOBAI9V9KCTKFhZQAJT2uZeCqHWOT+UprS5tMy8cw6xu+LSgBK3aYNTuoIpHQxl7g8OcWgn23Dn4Jf3SRCLGpoiLENnA9HtIHuTTuqffDo/Bzx/iJ+qVK6b7JtFHJwD3sJ8RKMnzsgkvtCEIIBCEIAEIQgAQhCABCEIAEIQgAQhCABVPv+wnNBDUgaxuLHH8r+HxCthQm2mE/aqKeG1y5hy/qb3m29R8UAcW7TFPtGG07ybua3I79UfdN/O1/VNCpfcXj7IhPSzSNZ3g9mYgd72XtF/JvxVzNcCLggjqEAfSFhZQAKGx2O4I6sI+BUtJK1vEgKKr6gP4DQX1QBTmwe21LR0ZimL+0EjyGtaTobW14dVB4rixxLE4HwROaS6JrQdT3XAlxtwsNfRbdkdnYanFn0s9zHmm9l1r5CS3Ucle+AbKUdH/w8DWO5u4uP8R1QSTTRoFlCEEAhCEACEIQAIQhAAhCEACEIQAIQhAAhCEAUVtxurrDUyzUrGSRPcXNYHBrmk6kWdYWvfmlZlBjNIe6ysitzb2hHvFwsoQSdMW8HGItDO/8A+SMH5hbzvWxY6dqz0iZdCEAaXbcYvLwc4/oiH0C0SUmNVWjmVjweoe1vvNghCALE3W7uZqWYVdWQ2QAhkYOYjMLFzyNL25BWshCCAQhCABCEIAEIQgD/2Q==;" vertex="1" parent="1">
          <mxGeometry x="275.06" y="188" width="57.88" height="80" as="geometry"/>
        </mxCell>
        <mxCell id="s73TaxPdMibVcEXbJFwl-3" value="" style="endArrow=classic;html=1;entryX=0;entryY=0.5;entryDx=0;entryDy=0;exitX=1;exitY=0.5;exitDx=0;exitDy=0;strokeWidth=2;" edge="1" parent="1" source="s73TaxPdMibVcEXbJFwl-1" target="s73TaxPdMibVcEXbJFwl-2">
          <mxGeometry width="50" height="50" relative="1" as="geometry">
            <mxPoint x="115.06" y="338" as="sourcePoint"/>
            <mxPoint x="165.06" y="288" as="targetPoint"/>
          </mxGeometry>
        </mxCell>
        <mxCell id="s73TaxPdMibVcEXbJFwl-5" value="&lt;b&gt;Jenkins Slave&lt;br&gt;(Linux)&lt;/b&gt;" style="text;html=1;resizable=0;autosize=1;align=center;verticalAlign=middle;points=[];fillColor=none;strokeColor=none;rounded=0;" vertex="1" parent="1">
          <mxGeometry x="259" y="153" width="90" height="30" as="geometry"/>
        </mxCell>
        <mxCell id="s73TaxPdMibVcEXbJFwl-6" value="&lt;b&gt;Jenkins&lt;br&gt;Master&lt;/b&gt;" style="text;html=1;resizable=0;autosize=1;align=center;verticalAlign=middle;points=[];fillColor=none;strokeColor=none;rounded=0;" vertex="1" parent="1">
          <mxGeometry x="114" y="153" width="60" height="30" as="geometry"/>
        </mxCell>
        <mxCell id="s73TaxPdMibVcEXbJFwl-14" value="" style="endArrow=classic;html=1;entryX=0;entryY=0.5;entryDx=0;entryDy=0;exitX=1;exitY=0.5;exitDx=0;exitDy=0;strokeWidth=2;" edge="1" parent="1">
          <mxGeometry width="50" height="50" relative="1" as="geometry">
            <mxPoint x="363.7300000000001" y="263" as="sourcePoint"/>
            <mxPoint x="465.84999999999997" y="263" as="targetPoint"/>
          </mxGeometry>
        </mxCell>
        <mxCell id="s73TaxPdMibVcEXbJFwl-15" value="" style="shape=image;verticalLabelPosition=bottom;labelBackgroundColor=#ffffff;verticalAlign=top;aspect=fixed;imageAspect=0;image=data:image/png,iVBORw0KGgoAAAANSUhEUgAAASwAAACoCAMAAABt9SM9AAAA6lBMVEX///8AAADwUTNBMAAODg78/Pw5JgDBwcHv7+8+LQDJyck3JAAKCgrwTzBvb2+Hf3NbW1t7e3uEhISXkITycl01HgBOQCQwGgDvPxUrEADKx8AtFAD2pJnwSSazs7MxMTHX19eioqKSkpJFRUViYmLT09Py8vLi4uKnp6chISFNTU0kAACpo5nvPA7vRB4qKioYGBhzc3M7Ozv84t70iXn5wLizrqUnCAATAAD4tq3zfmz3p5xzaVYdAAD71M9YSitKOhRqX0rxXkPxZk/96uiCem3yb1r0h3b83tlhVT32nI+sp5/1k4XxWT7c+1HsAAAKUklEQVR4nO2cbWOayBaAQQMCatS4xheiQRMlGmNMttF2kzSmaW43ve3//zs7LwwMiIoCYvU8H7qKEMdnZ86cOYwKAgAAAAAAAAAAAAAAAAAAAAAAAAAAAAAAAAAAAAAExGx1Li/O+/3+xaDU1npJN2d36bWKoof7jpl0q3YS7dJrinJ+lXTLdg7t3F8VoSMl3bxdwrxYogrTSrqFu0NnhSrEhZJ0I3eD3v1qV4hM0u3cBYxAqhAnSbc0eTJBXYnicdJtTZo1XIliMenWJou2jqsD71vmeq5QxpV0ixOkv66sA54T75iCkmBm5taFjKNOV1LsZ4e6tnYCloafKiU/VX3al+wU/1CD/JFtxFr7mQO0br5rtzKaprWuTnBfY6toJ8k/zIHYtj//2D7WdS+ZTXuR0/I5+YCQnKF2sfpsLsc4xJKN07HE+9Vnc8nrUfxt2zmciCWKq89ucWcfXtTq8lPe6trxMXf24U2IrjxBW3m6qzp4cLkW/+EDFF96/PmHVjflV4WBkgE+aF3G3bod42rtgH271oSwV9yt/dF5vQdWkOfq7qVgVyicrNUTwl6xQbgeO5e0Y21bREhKRANA2qCbDJxLtlYD/PfscdM8pTCt12fdKBrBT4ZGwGu4gtddFG0IwMNNszn6vtGlZT2dTqvXUaSEIWVtKXd4uEmlUvnNbGFX6XRlEkEzeFlBu+pg27KIqw1tSVMiK1uOoB28rKDr4vsty/pCXWFbf69/tadnDT9PPxc2bAifBwSd2rhLAmYb4fhZS4WwVa6SmMUmxIK8eS/jZ8OANwP5zrid2fAslK2na72ebbBnMzXEkOQ+ecBiHr84jL9Y+uUf9M9jKFs906k8mfUw8YuL1qIR6Ar+VlnsGfzDzYjayudDxC2HVzmMrJN1IxAf5WJfG+LY3iS2vr3V8qFtSe+VUDNja93PzhcL467C03mQ2BKE799W2zImw/Jw0lAsekJvaIGC1qSQlcnUqJ4iZk/rt8e1y2Gw+nzXLq6YE3iWMzBbo+UjUSnoeqWSzVaqdcpzWTCeKwT9XZCeZTVNURHyBrJc5anVs5urUBrzHQsnv3qjB/63NG5NpnLaTXYoNKr0oVwQpKrrxY1kufeRrrCljF1nx7p52XaVyv9FjzBZvrYm17TTyEyZnJ0OheGzbMt6rjJzVUT9dYM2eXYbFZetOFvuc2PN3x1XqZS1zlmWb/XqRJX+8v4kZ/HDWbk8NASh+y4zWY1GI0v7VIOwSavo/Zr7Ertv01kU5jPeDbpxJg68KzQO6f/CJbaG2IM6IxlVAc95VZZcnapUFqYSdp1I7zF3uU3wg7bhPcnMzG+tud38PVficoVCPIpaXwWXrdq/rgtesBLddJ7IbJhFKssK8bhOyn8RxeDO8N+yFWN497giUesnnhPPas0ms+XqW3WSElhPSDebWgElWlnWXg+ckjo7AF2RXvJzdR7iLVfgdUVknd38QC89/vgxyvv0LVyJUVlnmmApukGfRCuLLXnafBblnuj8vnoRSaXWlzlXVFZz9IO83Htjtri+5epZ5Sw3JiOWxVYwijPfebYx+HyhIL6E9O85V5as1OgTOeG7FbnyeeeiDxKz6AynkEkvnmFo3wrEA7FLpryxJx7Nj8NcqDdcypfRIllNKkv4bSVc3EAcEg/ViSL1JirWo35Yr0Qti0V2MvaUbnc+eZiTZYR7w2V8XdizmKyUJevGqTNLdC1Tqev1Cnk0ZXlU5LKsGXFxlul1FeuWkE9zXcuSlRqRofXVer12xl1k1NnKj1C3a8fRy7LWfAuLpR5XMVdI52wxWfk31Je+NmnHqv10XaR82LbU7PXQPh69LBbkc1dkCEregeh2Ffv3wry2mCw0A/7Oj3xdCV2ciWbruq5PT8tc++dkyZvesHBw1sjn5/P14m32K4zHli0rxcLVnKvGVE1n3wXFMEz38paXRaZJNR2+fRK/qc8bk7YWrxhuW7i27Cx1/FwZ00UWeFlkUZSWPyaNSSGkMq7EvLhn5YxwbxIU3hadBT81OVdnntNVGrBeXt8L5f9PGmwV3etOyAvqh4FHZsEqlVaqFbkeMqvWcitlbWt3g8tWkx5pLnZl1qkFVZXlbKVSrVeeSOpQvq5YMV//jA50r535Mnyc7yyXdRvfGmeeX8xWnpaVhX/yi1wJJmfBqvCR6h5Z+FCq2F5hqtoT5ialUjc9Worx3p2mqra88Z3Zyn+jz9/yi1wJwmvWaytdLeOeVWU8k642mdX1alXXP4aR/ARKr92fT9CLKGPd/jY/ZmuEa1n+uajNq0pGocsW6nENByudUIxGw4ywIG7O15aj/PPBYbaaD5L00FzmCt+ZyL7M5IqOeg5d8KTrB/b7OXbfqtWW9isFZQ7yO3og9VDPmdAUgVW0DoZfnlze3xUJ5LqTtpv6IfYsr63ao/9ZT7JT7RPooEQTXlRt6LU6pcvSSTuz89+/4W0tciXgG17qaYMGVmVCpsZKFLv9ECZ3C4IURSVtbq7rj8dHVp29I47HojH3V6QjdEr8Xw1zbC10JUzINtuqPjt9OVXrdL2cjmZOyojiEYPc0cI1B883MyUxl2Nfuijhx/NJloIPx3lDzILZWuwKZQ5VlsLT9EGtvkSzxUcTc1QU/g+pt1wieZ5EVEKHcrYs9LKfLHQ4xps8NtTWMld4O2Q1a+38UOWsrg6XnRwcibiyl4FYwr1oWSuN+31632aXZAm/avn8zVJXqMGN8tOsMp1eV2ZPw8iWZW08BtGKBuWZkqKVcIQnNnDp5RiPLBK+dkqW8Pj728NW3sjLOIcHoGsWlAbWvr9j/Pl3UFZSmKRjeSc/a+a4w59/7WGo7Hz+sSktn/7QKl5eFk3yUyHoxcFlse0n68o6C2Ue6MEVkZW718gN7dJ++uqwYM5BaqQZnECQbAJvmJRIB2wRilQWubuIu6RG8zMsC08U9N+9/KLmMQvmvTalhWVhG6adfSETEvMmUoVIlh3QNJGcotDzcyQRCfJzI38eRRaA7F9KcWR5exbHIlm0MH/EQt2eMWAfuWt1DFuW1Glf4AelTidjycoRlsgSLwz8l9Ape/lrbVzP8sgSvLOh/csrS2SR6Eeu38cfLrBjliFasZmT5c6zxGNBQrDZ0FcWSc8y+FGAn/3543DNhuIqWYSVsgz8d/oJfJi4aXEfTIpQ1l7m8qYVgTBRySIHAnyZ5c/jlhiiNdjwssiAvuJO3i+uaFg/yWhay1cWyQEWycJyOpwsMgeez9fD9oVz0a5neWfDDhmjt8WSnyzrxQuaSthJafH4iDwwEvxI8aFwVWWPLM1K4Qd+stiLuSNHVg5bz7Hy9D6i3Nu6cqT4fmIX2QeivTZEh2xZ9OUi9YT15IisXG5s/aVYt+QmTMb+bnSRjj5WILW+qVrEv8+TY+kYeRnn9dYOrjsFha8TsuG7bd0oOjeS+ijbQDIyCJ97tlLX97CFqWneFyVj/hgAAAAAAAAAAAAAAAAAAAAAAAAAAAAAAAAAAAAAAAAAAAAAAAAAAACwF/wH+j7YQz7ZGswAAAAASUVORK5CYII=;" vertex="1" parent="1">
          <mxGeometry x="434" y="62.81" width="161.06" height="90.19" as="geometry"/>
        </mxCell>
        <mxCell id="s73TaxPdMibVcEXbJFwl-16" value="Windows" style="shape=mxgraph.signs.tech.computer;html=1;fillColor=#000000;strokeColor=none;verticalLabelPosition=bottom;verticalAlign=top;align=center;fontSize=18;" vertex="1" parent="1">
          <mxGeometry x="470" y="218" width="98" height="98" as="geometry"/>
        </mxCell>
        <mxCell id="s73TaxPdMibVcEXbJFwl-21" value="" style="endArrow=classic;html=1;entryX=0.5;entryY=0;entryDx=0;entryDy=0;exitX=0.528;exitY=1;exitDx=0;exitDy=0;entryPerimeter=0;exitPerimeter=0;strokeWidth=2;" edge="1" parent="1" source="s73TaxPdMibVcEXbJFwl-15" target="s73TaxPdMibVcEXbJFwl-16">
          <mxGeometry width="50" height="50" relative="1" as="geometry">
            <mxPoint x="373.73" y="273" as="sourcePoint"/>
            <mxPoint x="475.8499999999999" y="273" as="targetPoint"/>
          </mxGeometry>
        </mxCell>
      </root>
    </mxGraphModel>
  </diagram>
</mxfile>
